<!-- icon666.com - MILLIONS vector ICONS FREE --><svg id="Capa_1" enable-background="new 0 0 512 512" viewBox="0 0 512 512" xmlns="http://www.w3.org/2000/svg" xmlns:xlink="http://www.w3.org/1999/xlink"><linearGradient id="SVGID_1_" gradientUnits="userSpaceOnUse" x1="256" x2="256" y1="512" y2="0"><stop offset="0" stop-color="#fd3a84"/><stop offset="1" stop-color="#ffa68d"/></linearGradient><g><g><path d="m466.868 255.094-31-242c-.958-7.486-7.33-13.094-14.878-13.094h-60c-7.57 0-13.955 5.642-14.886 13.155l-30 242c-.529 4.267.799 8.556 3.646 11.778 2.848 3.222 6.94 5.067 11.24 5.067h45v90c-6.883 0-12.883 4.685-14.552 11.362l-30 120c-1.121 4.481-.114 9.229 2.729 12.869 2.843 3.641 7.204 5.769 11.823 5.769h90c4.619 0 8.98-2.128 11.823-5.769s3.85-8.388 2.729-12.869l-30-120c-1.669-6.677-7.669-11.362-14.552-11.362v-90h46c4.311 0 8.413-1.854 11.261-5.09s4.165-7.54 3.617-11.816zm-50.089 226.906h-51.576l22.5-90h6.576zm-68.814-240 26.28-212h33.544l27.157 212zm-92.851 7.006-29.238-235.851c-.931-7.513-7.315-13.155-14.886-13.155h-60c-7.57 0-13.955 5.642-14.886 13.155l-29.143 235.083c-15.681 10.958-54.11 42.933-60.855 96.902-7.903 63.226 29.444 153.805 31.038 157.629 2.328 5.59 7.79 9.231 13.846 9.231h179.008c6.056 0 11.518-3.641 13.846-9.231 1.594-3.825 38.941-94.404 31.038-157.629-6.595-52.762-43.469-84.501-59.768-96.134zm-90.869-219.006h33.49l26.28 212h-86.051zm95.496 452h-158.494c-8.917-23.816-30.948-88.538-25.373-133.14 5.453-43.623 39.071-69.729 49.512-76.86h110.217c10.442 7.132 44.058 33.239 49.511 76.86 5.576 44.602-16.457 109.327-25.373 133.14zm-78.751-180c-41.355 0-75 33.645-75 75s33.645 75 75 75 75-33.645 75-75-33.644-75-75-75zm0 120c-24.813 0-45-20.187-45-45s20.187-45 45-45 45 20.187 45 45-20.186 45-45 45z" fill="url(#SVGID_1_)"/></g></g></svg>