<svg width="118" height="78" viewBox="0 0 118 78" fill="none" xmlns="http://www.w3.org/2000/svg">
<g clip-path="url(#clip0_290_553)">
<path d="M21.6106 28.9969C21.6106 30.5275 21.3326 31.9617 20.7645 33.3115C20.1965 34.6613 19.4229 35.8303 18.4439 36.8306C17.4649 37.831 16.3167 38.6264 14.9993 39.2049C13.6819 39.7834 12.2919 40.0726 10.7932 40.0726C9.29448 40.0726 7.90454 39.7834 6.58711 39.2049C5.26969 38.6264 4.13357 37.831 3.15456 36.8306C2.17556 35.8303 1.41411 34.6492 0.846051 33.3115C0.277988 31.9617 0 30.5275 0 28.9969C0 27.4663 0.277988 26.0321 0.846051 24.6823C1.41411 23.3446 2.18765 22.1635 3.15456 21.1632C4.13357 20.1628 5.26969 19.3674 6.58711 18.7889C7.90454 18.2104 9.29448 17.9212 10.7932 17.9212C12.2919 17.9212 13.6819 18.2104 14.9993 18.7889C16.3167 19.3674 17.4528 20.1628 18.4439 21.1632C19.4229 22.1635 20.1965 23.3446 20.7645 24.6823C21.3326 26.0321 21.6106 27.4663 21.6106 28.9969ZM13.9357 37.9515V20.0423C12.9204 19.6808 11.8689 19.512 10.7932 19.512C9.71751 19.512 8.69016 19.6928 7.72324 20.0423V37.9515C8.7385 38.2889 9.76585 38.4577 10.7932 38.4577C11.3492 38.4577 11.8931 38.4094 12.4007 38.3251C12.9204 38.2407 13.428 38.1081 13.9357 37.9394V37.9515Z" fill="#997A42"/>
<path d="M31.7994 44.8693H32.5367C32.8268 44.8693 33.0323 44.9536 33.1773 45.1224C33.3103 45.2911 33.3828 45.4598 33.3828 45.6406C33.3828 45.8214 33.3103 45.9901 33.1773 46.1468C33.0443 46.3034 32.8268 46.3878 32.5367 46.3878H23.629C23.3752 46.3878 23.1818 46.3155 23.0368 46.1468C22.9038 45.9901 22.8313 45.8214 22.8313 45.6406C22.8313 45.4598 22.8917 45.279 23.0247 45.1224C23.1576 44.9536 23.351 44.8693 23.629 44.8693H25.1882V26.7191H23.629C23.3752 26.7191 23.1818 26.6347 23.0368 26.478C22.9038 26.3214 22.8313 26.1526 22.8313 25.9719C22.8313 25.7911 22.8917 25.6224 23.0247 25.4657C23.1576 25.309 23.351 25.2246 23.629 25.2246H45.8439C46.134 25.2246 46.3394 25.297 46.4845 25.4657C46.6174 25.6224 46.69 25.7911 46.69 25.9719C46.69 26.1526 46.6174 26.3214 46.4845 26.478C46.3515 26.6347 46.134 26.7191 45.8439 26.7191H44.3089V44.8693H45.8439C46.134 44.8693 46.3394 44.9536 46.4845 45.1224C46.6174 45.2911 46.69 45.4598 46.69 45.6406C46.69 45.8214 46.6174 45.9901 46.4845 46.1468C46.3515 46.3034 46.134 46.3878 45.8439 46.3878H36.9362C36.6582 46.3878 36.4648 46.3155 36.3198 46.1468C36.1868 45.9901 36.1143 45.8214 36.1143 45.6406C36.1143 45.4598 36.1747 45.279 36.3077 45.1224C36.4406 44.9536 36.6461 44.8693 36.9362 44.8693H37.6976V26.7191H31.7994V44.8693Z" fill="#997A42"/>
<path d="M71.2375 50.835V56.1258C71.2375 56.3909 71.1529 56.5958 70.9837 56.7284C70.8145 56.861 70.6453 56.9333 70.4519 56.9333C70.2585 56.9333 70.0893 56.861 69.9201 56.7284C69.7509 56.5958 69.6663 56.3909 69.6663 56.1258V52.3656H48.5996C48.3458 52.3656 48.1524 52.2812 48.0194 52.1245C47.8865 51.9679 47.814 51.7871 47.814 51.6063C47.814 51.4255 47.8744 51.2448 48.0073 51.076C48.1282 50.9073 48.3337 50.8229 48.5996 50.8229H50.1225V32.4558H48.5996C48.3458 32.4558 48.1524 32.3715 48.0194 32.2148C47.8865 32.0581 47.814 31.8773 47.814 31.6965C47.814 31.5158 47.8744 31.347 48.0073 31.1783C48.1282 31.0216 48.3337 30.9373 48.5996 30.9373H57.3381C57.6161 30.9373 57.8336 31.0216 57.9666 31.1783C58.0995 31.335 58.1721 31.5158 58.1721 31.6965C58.1721 31.8773 58.0995 32.0581 57.9666 32.2148C57.8336 32.3715 57.6282 32.4558 57.3381 32.4558H56.6129V50.8229H62.4023V32.4558H61.6529C61.387 32.4558 61.1816 32.3715 61.0486 32.2148C60.9157 32.0581 60.8432 31.8773 60.8432 31.6965C60.8432 31.5158 60.9036 31.347 61.0365 31.1783C61.1574 31.0216 61.3629 30.9373 61.6529 30.9373H70.3915C70.6694 30.9373 70.887 31.0216 71.0199 31.1783C71.1529 31.335 71.2254 31.5158 71.2254 31.6965C71.2254 31.8773 71.1529 32.0581 71.0199 32.2148C70.887 32.3715 70.6815 32.4558 70.3915 32.4558H68.8927V50.8229H71.2254L71.2375 50.835Z" fill="#997A42"/>
<path d="M87.7718 32.8415L81.9462 38.5902V44.8693H82.6834C82.9735 44.8693 83.179 44.9536 83.3119 45.1224C83.4449 45.2911 83.5174 45.4598 83.5174 45.6406C83.5174 45.8214 83.4449 45.9901 83.3119 46.1468C83.179 46.3034 82.9735 46.3878 82.6834 46.3878H73.8845C73.6307 46.3878 73.4373 46.3155 73.3043 46.1468C73.1714 45.9901 73.0989 45.8214 73.0989 45.6406C73.0989 45.4598 73.1593 45.279 73.2923 45.1224C73.4131 44.9536 73.6186 44.8693 73.8845 44.8693H75.4195V26.7191H73.8845C73.6307 26.7191 73.4373 26.6347 73.3043 26.478C73.1714 26.3214 73.0989 26.1526 73.0989 25.9719C73.0989 25.7911 73.1593 25.6224 73.2923 25.4657C73.4131 25.309 73.6186 25.2246 73.8845 25.2246H82.6834C82.9735 25.2246 83.179 25.297 83.3119 25.4657C83.4449 25.6224 83.5174 25.7911 83.5174 25.9719C83.5174 26.1526 83.4449 26.3214 83.3119 26.478C83.179 26.6347 82.9735 26.7191 82.6834 26.7191H81.9462V36.3606L87.7718 30.6119V26.7311H87.0104C86.7445 26.7311 86.539 26.6468 86.4061 26.4901C86.2731 26.3334 86.2006 26.1647 86.2006 25.9839C86.2006 25.8031 86.261 25.6344 86.394 25.4777C86.5148 25.3211 86.7203 25.2367 87.0104 25.2367H95.8093C96.0994 25.2367 96.3049 25.309 96.4378 25.4777C96.5708 25.6344 96.6433 25.8031 96.6433 25.9839C96.6433 26.1647 96.5708 26.3334 96.4378 26.4901C96.3049 26.6468 96.0994 26.7311 95.8093 26.7311H94.2985V44.8813H95.8093C96.0994 44.8813 96.3049 44.9657 96.4378 45.1344C96.5708 45.3031 96.6433 45.4719 96.6433 45.6526C96.6433 45.8334 96.5708 46.0021 96.4378 46.1588C96.3049 46.3155 96.0994 46.3999 95.8093 46.3999H87.0104C86.7445 46.3999 86.539 46.3275 86.4061 46.1588C86.2731 46.0021 86.2006 45.8334 86.2006 45.6526C86.2006 45.4719 86.261 45.2911 86.394 45.1344C86.5148 44.9657 86.7203 44.8813 87.0104 44.8813H87.7718V32.8535V32.8415Z" fill="#997A42"/>
<path d="M102.783 32.2389C102.13 31.9376 101.55 31.5519 101.031 31.0819C100.511 30.6118 100.064 30.0816 99.689 29.5031C99.3143 28.9125 99.0242 28.2858 98.8308 27.623C98.6375 26.9601 98.5408 26.2732 98.5408 25.5621C98.5408 24.5377 98.7462 23.5856 99.1451 22.6817C99.5439 21.7778 100.088 20.9944 100.765 20.3195C101.442 19.6446 102.251 19.1143 103.17 18.7287C104.088 18.3309 105.067 18.1381 106.107 18.1381H117.178C117.396 18.1381 117.589 18.2225 117.758 18.3792C117.927 18.5358 118 18.7046 118 18.8974C118 19.0902 117.927 19.2589 117.794 19.4156C117.662 19.5723 117.456 19.6567 117.178 19.6567H115.619V37.9394H117.154C117.444 37.9394 117.662 38.0238 117.794 38.1925C117.927 38.3612 118 38.542 118 38.7228C118 38.9036 117.927 39.0723 117.794 39.241C117.662 39.3977 117.444 39.4821 117.154 39.4821H107.461C107.183 39.4821 106.977 39.3977 106.844 39.241C106.711 39.0843 106.639 38.9156 106.639 38.7228C106.639 38.53 106.711 38.3612 106.844 38.1925C106.977 38.0238 107.183 37.9394 107.461 37.9394H109.02V33.2271C108.427 33.4079 107.884 33.6851 107.412 34.0707C106.929 34.4444 106.53 34.8782 106.216 35.3603C105.889 35.8424 105.648 36.3727 105.478 36.9512C105.309 37.5296 105.225 38.1202 105.225 38.7228V39.47H97.4288C97.1387 39.47 96.9212 39.3856 96.7882 39.229C96.6553 39.0723 96.5828 38.9036 96.5828 38.7107C96.5828 38.5179 96.6553 38.3492 96.7882 38.1805C96.9212 38.0117 97.1387 37.9274 97.4288 37.9274H98.6012C98.7704 36.674 99.2297 35.5531 99.967 34.5528C100.704 33.5525 101.647 32.7812 102.795 32.2389H102.783ZM109.02 31.4555V19.6446H106.059V31.4555H109.02Z" fill="#997A42"/>
<g style="mix-blend-mode:multiply">
<path d="M64.5175 14.4503L60.1785 13.703L61.7376 11.6422L59.6829 13.3053L59.1753 8.0748L58.716 13.3053L56.4075 11.847L57.9183 13.8477L53.1321 14.5105L57.9667 15.1131L56.2987 17.415L58.6193 15.4144L59.2237 20.3798L59.7796 15.6555L61.8464 16.9691L60.0818 15.0047L64.5175 14.4503Z" fill="#C09749"/>
</g>
<path d="M58.7885 15.3903C58.7885 15.33 58.7402 15.2698 58.6797 15.2457C58.6555 15.2457 58.6435 15.2457 58.6193 15.2457C58.583 15.2457 58.5347 15.2577 58.5105 15.2818L57.3019 16.3303L58.1117 15.2095C58.1117 15.2095 58.1479 15.101 58.1237 15.0408C58.0996 14.9805 58.0512 14.9444 57.9908 14.9444L54.4495 14.4984L57.9304 14.0284C57.9304 14.0284 58.0391 13.9802 58.0633 13.9199C58.0875 13.8597 58.0754 13.7994 58.0391 13.7512L57.0843 12.4858L58.6193 13.4499C58.6193 13.4499 58.6797 13.474 58.716 13.474C58.7402 13.474 58.7643 13.474 58.7885 13.462C58.8368 13.4379 58.8731 13.3776 58.8852 13.3294L59.1753 9.96692L59.5016 13.3294C59.5016 13.3897 59.5499 13.4499 59.6104 13.474C59.6346 13.474 59.6587 13.4861 59.6829 13.4861C59.7192 13.4861 59.7554 13.474 59.7917 13.4499L60.7707 12.6545L60.0455 13.6066C60.0455 13.6066 59.9971 13.7151 60.0213 13.7753C60.0455 13.8356 60.0938 13.8717 60.1543 13.8838L63.3572 14.4382L60.0576 14.8479C59.9971 14.8479 59.9367 14.8962 59.9125 14.9564C59.8884 15.0167 59.9125 15.089 59.9488 15.1251L60.8795 16.1616L59.8642 15.5229C59.8642 15.5229 59.8038 15.4987 59.7675 15.4987C59.7433 15.4987 59.7192 15.4987 59.695 15.5108C59.6466 15.5349 59.6104 15.5831 59.5983 15.6434L59.2115 18.9335L58.7764 15.3903H58.7885Z" fill="#C09749"/>
<path d="M69.1951 46.2432C70.8993 43.9292 72.9781 40.9404 75.1416 37.4694C75.1416 37.4694 75.1416 37.4574 75.1416 37.4453C75.1053 37.0837 75.0933 36.7463 75.0933 36.4088C74.9361 36.686 74.8394 36.8427 74.8394 36.8427C72.8935 39.7593 71.0322 42.4348 69.2192 44.9295C69.2192 45.0742 69.2434 45.2308 69.2434 45.3755C69.2434 45.4598 69.2434 45.5562 69.2434 45.6406C69.2434 45.8334 69.2313 46.0383 69.2192 46.2311L69.1951 46.2432Z" fill="#997A42"/>
<path d="M77.9334 0.650817C77.9334 0.650817 69.3521 3.82047 60.9399 12.7027C53.5551 20.5003 46.8713 28.5751 44.5144 31.9014V33.0825C65.4844 4.32665 77.2566 1.55471 77.2566 1.55471C90.5275 -1.72341 86.0434 13.1728 80.8463 24.7426C80.8704 24.7426 80.8946 24.7064 80.9309 24.7064C80.9671 24.7064 81.0034 24.7064 81.0397 24.7064C81.2935 24.6462 81.5715 24.6462 81.8857 24.6703C81.8978 24.6703 81.9099 24.6703 81.922 24.6703C82.8405 22.6697 83.7108 20.6088 84.4964 18.5118C91.4582 -0.0361441 82.2362 -1.24133 77.9334 0.650817Z" fill="#997A42"/>
<path d="M63.1518 52.7874C43.7772 76.7707 33.129 75.8789 33.129 75.8789C21.6469 73.5649 36.1507 46.5565 36.1507 46.5565L36.1748 46.5204C35.8485 46.4842 35.5705 46.2311 35.6672 45.8575L35.4738 46.1588C35.4738 46.1588 23.2302 68.7562 28.222 76.0596C33.129 83.2546 51.9597 69.4793 64.0704 52.7994H63.1518V52.7874Z" fill="#997A42"/>
</g>
<defs>
<clipPath id="clip0_290_553">
<rect width="118" height="78" fill="white"/>
</clipPath>
</defs>
</svg>
